<?xml version="1.0" encoding="UTF-8"?>
<svg width="23px" height="16px" viewBox="0 0 23 16" version="1.1" xmlns="http://www.w3.org/2000/svg" xmlns:xlink="http://www.w3.org/1999/xlink">
    <!-- Generator: Sketch 49.3 (51167) - http://www.bohemiancoding.com/sketch -->
    <title>GB</title>
    <desc>Created with Sketch.</desc>
    <defs>
        <rect id="path-1" x="0" y="0" width="22.4" height="16" rx="2"></rect>
    </defs>
    <g id="Page-1" stroke="none" stroke-width="1" fill="none" fill-rule="evenodd">
        <g id="oyuncu" transform="translate(-340.000000, -903.000000)">
            <g id="movies" transform="translate(207.000000, 282.000000)">
                <g id="slide-copy" transform="translate(1.000000, 359.000000)">
                    <g id="movie">
                        <g id="lang" transform="translate(132.000000, 262.000000)">
                            <g id="GB">
                                <mask id="mask-2" fill="white">
                                    <use xlink:href="#path-1"></use>
                                </mask>
                                <use id="Mask" fill="#FFFFFF" xlink:href="#path-1"></use>
                                <rect id="Mask-Copy" fill="#0A17A7" mask="url(#mask-2)" x="0" y="0" width="22.4" height="16"></rect>
                                <path d="M5.33899299,10.6666667 L0,10.6666667 L0,5.33333333 L5.33899299,5.33333333 L-2.21892022,0.235456504 L-1.02597536,-1.53315698 L8.53333333,4.91467814 L8.53333333,-1.06666667 L13.8666667,-1.06666667 L13.8666667,4.91467814 L23.4259754,-1.53315698 L24.6189202,0.235456504 L17.061007,5.33333333 L22.4,5.33333333 L22.4,10.6666667 L17.061007,10.6666667 L24.6189202,15.7645435 L23.4259754,17.533157 L13.8666667,11.0853219 L13.8666667,17.0666667 L8.53333333,17.0666667 L8.53333333,11.0853219 L-1.02597536,17.533157 L-2.21892022,15.7645435 L5.33899299,10.6666667 Z" id="Rectangle-2" fill="#FFFFFF" mask="url(#mask-2)"></path>
                                <path d="M14.934375,5.06575521 L25.0666667,-1.6" id="Line" stroke="#DB1F35" stroke-width="0.666666667" stroke-linecap="round" mask="url(#mask-2)"></path>
                                <path d="M16.0102214,17.0802734 L25.0932943,10.9580078" id="Line-Copy-2" stroke="#DB1F35" stroke-width="0.666666667" stroke-linecap="round" mask="url(#mask-2)" transform="translate(20.551758, 14.019141) scale(1, -1) translate(-20.551758, -14.019141) "></path>
                                <path d="M6.40442708,5.0483724 L-3.06998698,-1.33678385" id="Line-Copy" stroke="#DB1F35" stroke-width="0.666666667" stroke-linecap="round" mask="url(#mask-2)"></path>
                                <path d="M7.43203125,17.8483724 L-3.06998698,10.8839193" id="Line-Copy-3" stroke="#DB1F35" stroke-width="0.666666667" stroke-linecap="round" mask="url(#mask-2)" transform="translate(2.181022, 14.366146) scale(1, -1) translate(-2.181022, -14.366146) "></path>
                                <polygon id="Rectangle-2-Copy-3" fill="#E6273E" mask="url(#mask-2)" points="0 9.6 9.6 9.6 9.6 16 12.8 16 12.8 9.6 22.4 9.6 22.4 6.4 12.8 6.4 12.8 0 9.6 0 9.6 6.4 0 6.4"></polygon>
                            </g>
                        </g>
                    </g>
                </g>
            </g>
        </g>
    </g>
</svg>